<?xml version="1.0" standalone="no"?>
<!DOCTYPE svg PUBLIC "-//W3C//DTD SVG 20010904//EN"
 "http://www.w3.org/TR/2001/REC-SVG-20010904/DTD/svg10.dtd">
<svg version="1.0" xmlns="http://www.w3.org/2000/svg"
 width="768.000000pt" height="768.000000pt" viewBox="0 0 768.000000 768.000000"
 preserveAspectRatio="xMidYMid meet">

<g transform="translate(0.000000,768.000000) scale(0.100000,-0.100000)"
fill="#000000" stroke="none">
<path d="M3598 7673 c-52 -4 -57 -6 -62 -31 -3 -15 -29 -166 -56 -336 -28
-170 -53 -312 -55 -316 -3 -4 -31 -11 -62 -15 -94 -11 -296 -54 -419 -90
l-114 -32 -162 231 c-89 127 -179 254 -200 283 l-38 52 -87 -35 c-106 -43
-428 -201 -442 -217 -6 -9 22 -116 89 -342 55 -181 98 -330 97 -331 -1 0 -36
-24 -79 -52 -95 -64 -265 -198 -339 -269 l-56 -53 -284 158 c-156 87 -294 164
-306 170 -20 11 -29 4 -108 -85 -128 -144 -288 -360 -279 -375 5 -7 108 -122
231 -255 123 -133 223 -246 223 -251 0 -5 -20 -44 -45 -88 -63 -109 -121 -229
-170 -348 l-42 -101 -89 2 c-49 1 -205 10 -347 19 -142 9 -260 14 -263 12 -17
-18 -97 -354 -128 -539 l-6 -37 322 -129 323 -129 -5 -105 c-3 -57 -5 -147 -5
-199 0 -52 2 -142 5 -200 l5 -104 -318 -127 c-175 -70 -320 -129 -323 -132
-12 -12 109 -554 129 -573 3 -3 157 4 342 16 185 12 342 19 349 17 6 -3 25
-38 40 -78 32 -82 146 -314 195 -397 17 -29 31 -57 31 -63 0 -6 -103 -122
-230 -259 -126 -138 -230 -253 -230 -256 0 -27 364 -469 378 -460 4 2 141 79
305 170 l298 167 82 -74 c104 -93 199 -168 307 -242 47 -32 86 -59 87 -60 1 0
-42 -149 -97 -330 l-99 -330 21 -16 c31 -24 296 -155 415 -205 94 -39 102 -41
116 -26 7 9 98 137 201 284 l187 266 32 -9 c186 -55 385 -101 500 -114 32 -4
61 -13 63 -20 3 -7 29 -160 59 -339 29 -180 56 -331 60 -334 9 -9 581 -9 590
0 4 3 31 154 60 334 30 179 56 332 59 339 2 7 31 16 63 20 115 13 314 59 500
114 l32 9 187 -266 c103 -147 194 -275 201 -284 14 -15 22 -13 116 26 119 50
384 181 415 205 l21 16 -99 330 c-55 181 -98 330 -97 330 1 1 40 28 87 60 108
74 203 149 307 242 l82 74 263 -147 c145 -81 282 -158 305 -171 l42 -24 93
107 c90 104 278 345 278 358 0 3 -103 118 -230 256 -126 137 -230 253 -230
259 0 6 14 34 31 63 49 83 163 315 195 397 15 40 34 75 40 78 7 2 164 -5 349
-17 185 -12 339 -19 342 -16 21 20 141 561 128 574 -3 3 -148 62 -323 131
l-317 127 5 109 c3 61 5 148 5 195 0 47 -2 134 -5 194 l-5 110 323 129 322
129 -6 37 c-31 185 -111 521 -128 539 -3 2 -121 -3 -263 -12 -142 -9 -298 -18
-347 -19 l-89 -2 -42 101 c-49 119 -107 239 -170 348 -25 44 -45 83 -45 88 0
5 100 118 223 251 123 133 226 248 231 254 11 20 -282 400 -355 460 -12 9 -41
-3 -149 -64 -74 -41 -211 -117 -304 -169 l-169 -94 -56 53 c-74 71 -244 205
-339 269 -43 28 -78 52 -79 52 -1 1 42 150 97 331 67 226 95 333 89 342 -14
16 -336 174 -441 216 -80 32 -88 34 -101 18 -8 -9 -98 -136 -201 -282 l-186
-266 -115 33 c-122 35 -324 78 -418 90 -32 3 -61 12 -63 19 -3 7 -29 160 -59
339 -29 180 -56 330 -59 333 -7 7 -459 12 -538 6z m597 -1528 c778 -124 1452
-621 1775 -1310 155 -328 223 -635 223 -995 0 -224 -16 -362 -68 -566 -178
-698 -672 -1276 -1339 -1567 -604 -264 -1288 -264 -1892 0 -655 286 -1142 846
-1330 1531 -125 456 -99 984 69 1418 148 383 403 736 710 983 335 270 778 462
1182 510 50 6 104 13 120 15 69 10 455 -4 550 -19z"/>
<path d="M3695 5844 c-352 -29 -692 -145 -975 -332 -479 -316 -788 -794 -887
-1367 -23 -139 -23 -471 0 -610 94 -546 383 -1010 827 -1325 707 -502 1653
-502 2360 0 444 315 733 779 827 1325 23 139 23 471 0 610 -84 486 -324 912
-685 1216 -295 249 -645 407 -1021 464 -104 15 -356 26 -446 19z"/>
</g>
</svg>
